<?xml version="1.0" standalone="no"?>
<svg xmlns="http://www.w3.org/2000/svg" class="recharts-surface" width="700" height="300" style="width: 100%; height: 100%;" viewBox="0 0 700 300"><title/><desc/><defs><clipPath id="recharts2-clip"><rect x="65" y="5" height="236" width="630"/></clipPath></defs><g class="recharts-cartesian-grid"><g class="recharts-cartesian-grid-horizontal"><line stroke-dasharray="3 3" stroke="#ccc" fill="none" x="65" y="5" width="630" height="236" x1="65" y1="241" x2="695" y2="241"/><line stroke-dasharray="3 3" stroke="#ccc" fill="none" x="65" y="5" width="630" height="236" x1="65" y1="182" x2="695" y2="182"/><line stroke-dasharray="3 3" stroke="#ccc" fill="none" x="65" y="5" width="630" height="236" x1="65" y1="123" x2="695" y2="123"/><line stroke-dasharray="3 3" stroke="#ccc" fill="none" x="65" y="5" width="630" height="236" x1="65" y1="64" x2="695" y2="64"/><line stroke-dasharray="3 3" stroke="#ccc" fill="none" x="65" y="5" width="630" height="236" x1="65" y1="5" x2="695" y2="5"/></g><g class="recharts-cartesian-grid-vertical"><line stroke-dasharray="3 3" stroke="#ccc" fill="none" x="65" y="5" width="630" height="236" x1="65" y1="5" x2="65" y2="241"/><line stroke-dasharray="3 3" stroke="#ccc" fill="none" x="65" y="5" width="630" height="236" x1="155" y1="5" x2="155" y2="241"/><line stroke-dasharray="3 3" stroke="#ccc" fill="none" x="65" y="5" width="630" height="236" x1="245" y1="5" x2="245" y2="241"/><line stroke-dasharray="3 3" stroke="#ccc" fill="none" x="65" y="5" width="630" height="236" x1="335" y1="5" x2="335" y2="241"/><line stroke-dasharray="3 3" stroke="#ccc" fill="none" x="65" y="5" width="630" height="236" x1="425" y1="5" x2="425" y2="241"/><line stroke-dasharray="3 3" stroke="#ccc" fill="none" x="65" y="5" width="630" height="236" x1="515" y1="5" x2="515" y2="241"/><line stroke-dasharray="3 3" stroke="#ccc" fill="none" x="65" y="5" width="630" height="236" x1="695" y1="5" x2="695" y2="241"/></g></g><g class="recharts-layer recharts-cartesian-axis recharts-xAxis xAxis"><line orientation="bottom" width="630" height="30" x="65" y="241" class="recharts-cartesian-axis-line" stroke="#666" fill="none" x1="65" y1="241" x2="695" y2="241"/><g class="recharts-cartesian-axis-ticks"><g class="recharts-layer recharts-cartesian-axis-tick"><line orientation="bottom" width="630" height="30" x="65" y="241" class="recharts-cartesian-axis-tick-line" stroke="#666" fill="none" x1="65" y1="247" x2="65" y2="241"/><text orientation="bottom" width="630" height="30" stroke="none" x="65" y="249" class="recharts-text recharts-cartesian-axis-tick-value" text-anchor="middle" fill="#666"><tspan x="65" dy="0.71em">2024-02-22</tspan></text></g><g class="recharts-layer recharts-cartesian-axis-tick"><line orientation="bottom" width="630" height="30" x="65" y="241" class="recharts-cartesian-axis-tick-line" stroke="#666" fill="none" x1="155" y1="247" x2="155" y2="241"/><text orientation="bottom" width="630" height="30" stroke="none" x="155" y="249" class="recharts-text recharts-cartesian-axis-tick-value" text-anchor="middle" fill="#666"><tspan x="155" dy="0.71em">2024-02-22</tspan></text></g><g class="recharts-layer recharts-cartesian-axis-tick"><line orientation="bottom" width="630" height="30" x="65" y="241" class="recharts-cartesian-axis-tick-line" stroke="#666" fill="none" x1="245" y1="247" x2="245" y2="241"/><text orientation="bottom" width="630" height="30" stroke="none" x="245" y="249" class="recharts-text recharts-cartesian-axis-tick-value" text-anchor="middle" fill="#666"><tspan x="245" dy="0.71em">2024-02-22</tspan></text></g><g class="recharts-layer recharts-cartesian-axis-tick"><line orientation="bottom" width="630" height="30" x="65" y="241" class="recharts-cartesian-axis-tick-line" stroke="#666" fill="none" x1="335" y1="247" x2="335" y2="241"/><text orientation="bottom" width="630" height="30" stroke="none" x="335" y="249" class="recharts-text recharts-cartesian-axis-tick-value" text-anchor="middle" fill="#666"><tspan x="335" dy="0.71em">2024-03-07</tspan></text></g><g class="recharts-layer recharts-cartesian-axis-tick"><line orientation="bottom" width="630" height="30" x="65" y="241" class="recharts-cartesian-axis-tick-line" stroke="#666" fill="none" x1="425" y1="247" x2="425" y2="241"/><text orientation="bottom" width="630" height="30" stroke="none" x="425" y="249" class="recharts-text recharts-cartesian-axis-tick-value" text-anchor="middle" fill="#666"><tspan x="425" dy="0.71em">2024-03-07</tspan></text></g><g class="recharts-layer recharts-cartesian-axis-tick"><line orientation="bottom" width="630" height="30" x="65" y="241" class="recharts-cartesian-axis-tick-line" stroke="#666" fill="none" x1="515" y1="247" x2="515" y2="241"/><text orientation="bottom" width="630" height="30" stroke="none" x="515" y="249" class="recharts-text recharts-cartesian-axis-tick-value" text-anchor="middle" fill="#666"><tspan x="515" dy="0.71em">2024-03-07</tspan></text></g><g class="recharts-layer recharts-cartesian-axis-tick"><line orientation="bottom" width="630" height="30" x="65" y="241" class="recharts-cartesian-axis-tick-line" stroke="#666" fill="none" x1="695" y1="247" x2="695" y2="241"/><text orientation="bottom" width="630" height="30" stroke="none" x="659.0666656494141" y="249" class="recharts-text recharts-cartesian-axis-tick-value" text-anchor="middle" fill="#666"><tspan x="659.0666656494141" dy="0.71em">2024-03-07</tspan></text></g></g><text offset="5" x="690" y="284" class="recharts-text recharts-label" text-anchor="end" fill="#808080"><tspan x="690" dy="0em">Date</tspan></text></g><g class="recharts-layer recharts-cartesian-axis recharts-yAxis yAxis"><line orientation="left" width="60" height="236" x="5" y="5" class="recharts-cartesian-axis-line" stroke="#666" fill="none" x1="65" y1="5" x2="65" y2="241"/><g class="recharts-cartesian-axis-ticks"><g class="recharts-layer recharts-cartesian-axis-tick"><line orientation="left" width="60" height="236" x="5" y="5" class="recharts-cartesian-axis-tick-line" stroke="#666" fill="none" x1="59" y1="241" x2="65" y2="241"/><text orientation="left" width="60" height="236" stroke="none" x="57" y="241" class="recharts-text recharts-cartesian-axis-tick-value" text-anchor="end" fill="#666"><tspan x="57" dy="0.355em">0</tspan></text></g><g class="recharts-layer recharts-cartesian-axis-tick"><line orientation="left" width="60" height="236" x="5" y="5" class="recharts-cartesian-axis-tick-line" stroke="#666" fill="none" x1="59" y1="182" x2="65" y2="182"/><text orientation="left" width="60" height="236" stroke="none" x="57" y="182" class="recharts-text recharts-cartesian-axis-tick-value" text-anchor="end" fill="#666"><tspan x="57" dy="0.355em">25</tspan></text></g><g class="recharts-layer recharts-cartesian-axis-tick"><line orientation="left" width="60" height="236" x="5" y="5" class="recharts-cartesian-axis-tick-line" stroke="#666" fill="none" x1="59" y1="123" x2="65" y2="123"/><text orientation="left" width="60" height="236" stroke="none" x="57" y="123" class="recharts-text recharts-cartesian-axis-tick-value" text-anchor="end" fill="#666"><tspan x="57" dy="0.355em">50</tspan></text></g><g class="recharts-layer recharts-cartesian-axis-tick"><line orientation="left" width="60" height="236" x="5" y="5" class="recharts-cartesian-axis-tick-line" stroke="#666" fill="none" x1="59" y1="64" x2="65" y2="64"/><text orientation="left" width="60" height="236" stroke="none" x="57" y="64" class="recharts-text recharts-cartesian-axis-tick-value" text-anchor="end" fill="#666"><tspan x="57" dy="0.355em">75</tspan></text></g><g class="recharts-layer recharts-cartesian-axis-tick"><line orientation="left" width="60" height="236" x="5" y="5" class="recharts-cartesian-axis-tick-line" stroke="#666" fill="none" x1="59" y1="5" x2="65" y2="5"/><text orientation="left" width="60" height="236" stroke="none" x="57" y="12" class="recharts-text recharts-cartesian-axis-tick-value" text-anchor="end" fill="#666"><tspan x="57" dy="0.355em">100</tspan></text></g></g><text offset="5" transform="rotate(270, 17, 123)" x="17" y="123" class="recharts-text recharts-label" text-anchor="middle" fill="#808080"><tspan x="17" dy="0.355em">Weight (kg)</tspan></text></g><g class="recharts-layer recharts-line"><path stroke="#ff0000" stroke-width="1" fill="none" width="630" height="236" class="recharts-curve recharts-line-curve" d="M65,193.8C95,166.267,125,138.733,155,123C185,107.267,215,99.4,245,99.4C275,99.4,305,193.8,335,193.8C365,193.8,395,115.133,425,99.4C455,83.667,485,83.667,515,75.8C545,67.933,575,60.067,605,52.2C635,44.333,665,36.467,695,28.6"/><g class="recharts-layer"/><g class="recharts-layer recharts-line-dots"><circle r="3" stroke="#ff0000" stroke-width="1" fill="#fff" width="630" height="236" cx="65" cy="193.8" class="recharts-dot recharts-line-dot"/><circle r="3" stroke="#ff0000" stroke-width="1" fill="#fff" width="630" height="236" cx="155" cy="123" class="recharts-dot recharts-line-dot"/><circle r="3" stroke="#ff0000" stroke-width="1" fill="#fff" width="630" height="236" cx="245" cy="99.4" class="recharts-dot recharts-line-dot"/><circle r="3" stroke="#ff0000" stroke-width="1" fill="#fff" width="630" height="236" cx="335" cy="193.8" class="recharts-dot recharts-line-dot"/><circle r="3" stroke="#ff0000" stroke-width="1" fill="#fff" width="630" height="236" cx="425" cy="99.4" class="recharts-dot recharts-line-dot"/><circle r="3" stroke="#ff0000" stroke-width="1" fill="#fff" width="630" height="236" cx="515" cy="75.80000000000001" class="recharts-dot recharts-line-dot"/><circle r="3" stroke="#ff0000" stroke-width="1" fill="#fff" width="630" height="236" cx="605" cy="52.19999999999999" class="recharts-dot recharts-line-dot"/><circle r="3" stroke="#ff0000" stroke-width="1" fill="#fff" width="630" height="236" cx="695" cy="28.599999999999994" class="recharts-dot recharts-line-dot"/></g></g></svg>