<?xml version="1.0" standalone="no"?>
<svg xmlns="http://www.w3.org/2000/svg" class="recharts-surface" width="700" height="300" style="width: 100%; height: 100%;" viewBox="0 0 700 300"><title/><desc/><defs><clipPath id="recharts2-clip"><rect x="65" y="5" height="236" width="630"/></clipPath></defs><g class="recharts-cartesian-grid"><g class="recharts-cartesian-grid-horizontal"><line stroke-dasharray="3 3" stroke="#ccc" fill="none" x="65" y="5" width="630" height="236" x1="65" y1="241" x2="695" y2="241"/><line stroke-dasharray="3 3" stroke="#ccc" fill="none" x="65" y="5" width="630" height="236" x1="65" y1="182" x2="695" y2="182"/><line stroke-dasharray="3 3" stroke="#ccc" fill="none" x="65" y="5" width="630" height="236" x1="65" y1="123" x2="695" y2="123"/><line stroke-dasharray="3 3" stroke="#ccc" fill="none" x="65" y="5" width="630" height="236" x1="65" y1="64" x2="695" y2="64"/><line stroke-dasharray="3 3" stroke="#ccc" fill="none" x="65" y="5" width="630" height="236" x1="65" y1="5" x2="695" y2="5"/></g><g class="recharts-cartesian-grid-vertical"><line stroke-dasharray="3 3" stroke="#ccc" fill="none" x="65" y="5" width="630" height="236" x1="65" y1="5" x2="65" y2="241"/><line stroke-dasharray="3 3" stroke="#ccc" fill="none" x="65" y="5" width="630" height="236" x1="179.54545454545456" y1="5" x2="179.54545454545456" y2="241"/><line stroke-dasharray="3 3" stroke="#ccc" fill="none" x="65" y="5" width="630" height="236" x1="294.0909090909091" y1="5" x2="294.0909090909091" y2="241"/><line stroke-dasharray="3 3" stroke="#ccc" fill="none" x="65" y="5" width="630" height="236" x1="408.6363636363636" y1="5" x2="408.6363636363636" y2="241"/><line stroke-dasharray="3 3" stroke="#ccc" fill="none" x="65" y="5" width="630" height="236" x1="523.1818181818182" y1="5" x2="523.1818181818182" y2="241"/><line stroke-dasharray="3 3" stroke="#ccc" fill="none" x="65" y="5" width="630" height="236" x1="695" y1="5" x2="695" y2="241"/></g></g><g class="recharts-layer recharts-cartesian-axis recharts-xAxis xAxis"><line orientation="bottom" width="630" height="30" x="65" y="241" class="recharts-cartesian-axis-line" stroke="#666" fill="none" x1="65" y1="241" x2="695" y2="241"/><g class="recharts-cartesian-axis-ticks"><g class="recharts-layer recharts-cartesian-axis-tick"><line orientation="bottom" width="630" height="30" x="65" y="241" class="recharts-cartesian-axis-tick-line" stroke="#666" fill="none" x1="65" y1="247" x2="65" y2="241"/><text orientation="bottom" width="630" height="30" stroke="none" x="65" y="249" class="recharts-text recharts-cartesian-axis-tick-value" text-anchor="middle" fill="#666"><tspan x="65" dy="0.71em">2024-02-15</tspan></text></g><g class="recharts-layer recharts-cartesian-axis-tick"><line orientation="bottom" width="630" height="30" x="65" y="241" class="recharts-cartesian-axis-tick-line" stroke="#666" fill="none" x1="179.54545454545456" y1="247" x2="179.54545454545456" y2="241"/><text orientation="bottom" width="630" height="30" stroke="none" x="179.54545454545456" y="249" class="recharts-text recharts-cartesian-axis-tick-value" text-anchor="middle" fill="#666"><tspan x="179.54545454545456" dy="0.71em">2024-02-23</tspan></text></g><g class="recharts-layer recharts-cartesian-axis-tick"><line orientation="bottom" width="630" height="30" x="65" y="241" class="recharts-cartesian-axis-tick-line" stroke="#666" fill="none" x1="294.0909090909091" y1="247" x2="294.0909090909091" y2="241"/><text orientation="bottom" width="630" height="30" stroke="none" x="294.0909090909091" y="249" class="recharts-text recharts-cartesian-axis-tick-value" text-anchor="middle" fill="#666"><tspan x="294.0909090909091" dy="0.71em">2024-02-27</tspan></text></g><g class="recharts-layer recharts-cartesian-axis-tick"><line orientation="bottom" width="630" height="30" x="65" y="241" class="recharts-cartesian-axis-tick-line" stroke="#666" fill="none" x1="408.6363636363636" y1="247" x2="408.6363636363636" y2="241"/><text orientation="bottom" width="630" height="30" stroke="none" x="408.6363636363636" y="249" class="recharts-text recharts-cartesian-axis-tick-value" text-anchor="middle" fill="#666"><tspan x="408.6363636363636" dy="0.71em">2024-03-06</tspan></text></g><g class="recharts-layer recharts-cartesian-axis-tick"><line orientation="bottom" width="630" height="30" x="65" y="241" class="recharts-cartesian-axis-tick-line" stroke="#666" fill="none" x1="523.1818181818182" y1="247" x2="523.1818181818182" y2="241"/><text orientation="bottom" width="630" height="30" stroke="none" x="523.1818181818182" y="249" class="recharts-text recharts-cartesian-axis-tick-value" text-anchor="middle" fill="#666"><tspan x="523.1818181818182" dy="0.71em">2024-03-02</tspan></text></g><g class="recharts-layer recharts-cartesian-axis-tick"><line orientation="bottom" width="630" height="30" x="65" y="241" class="recharts-cartesian-axis-tick-line" stroke="#666" fill="none" x1="695" y1="247" x2="695" y2="241"/><text orientation="bottom" width="630" height="30" stroke="none" x="659.0666656494141" y="249" class="recharts-text recharts-cartesian-axis-tick-value" text-anchor="middle" fill="#666"><tspan x="659.0666656494141" dy="0.71em">2024-03-07</tspan></text></g></g><text offset="5" x="690" y="284" class="recharts-text recharts-label" text-anchor="end" fill="#808080"><tspan x="690" dy="0em">Date</tspan></text></g><g class="recharts-layer recharts-cartesian-axis recharts-yAxis yAxis"><line orientation="left" width="60" height="236" x="5" y="5" class="recharts-cartesian-axis-line" stroke="#666" fill="none" x1="65" y1="5" x2="65" y2="241"/><g class="recharts-cartesian-axis-ticks"><g class="recharts-layer recharts-cartesian-axis-tick"><line orientation="left" width="60" height="236" x="5" y="5" class="recharts-cartesian-axis-tick-line" stroke="#666" fill="none" x1="59" y1="241" x2="65" y2="241"/><text orientation="left" width="60" height="236" stroke="none" x="57" y="241" class="recharts-text recharts-cartesian-axis-tick-value" text-anchor="end" fill="#666"><tspan x="57" dy="0.355em">0</tspan></text></g><g class="recharts-layer recharts-cartesian-axis-tick"><line orientation="left" width="60" height="236" x="5" y="5" class="recharts-cartesian-axis-tick-line" stroke="#666" fill="none" x1="59" y1="182" x2="65" y2="182"/><text orientation="left" width="60" height="236" stroke="none" x="57" y="182" class="recharts-text recharts-cartesian-axis-tick-value" text-anchor="end" fill="#666"><tspan x="57" dy="0.355em">15</tspan></text></g><g class="recharts-layer recharts-cartesian-axis-tick"><line orientation="left" width="60" height="236" x="5" y="5" class="recharts-cartesian-axis-tick-line" stroke="#666" fill="none" x1="59" y1="123" x2="65" y2="123"/><text orientation="left" width="60" height="236" stroke="none" x="57" y="123" class="recharts-text recharts-cartesian-axis-tick-value" text-anchor="end" fill="#666"><tspan x="57" dy="0.355em">30</tspan></text></g><g class="recharts-layer recharts-cartesian-axis-tick"><line orientation="left" width="60" height="236" x="5" y="5" class="recharts-cartesian-axis-tick-line" stroke="#666" fill="none" x1="59" y1="64" x2="65" y2="64"/><text orientation="left" width="60" height="236" stroke="none" x="57" y="64" class="recharts-text recharts-cartesian-axis-tick-value" text-anchor="end" fill="#666"><tspan x="57" dy="0.355em">45</tspan></text></g><g class="recharts-layer recharts-cartesian-axis-tick"><line orientation="left" width="60" height="236" x="5" y="5" class="recharts-cartesian-axis-tick-line" stroke="#666" fill="none" x1="59" y1="5" x2="65" y2="5"/><text orientation="left" width="60" height="236" stroke="none" x="57" y="12" class="recharts-text recharts-cartesian-axis-tick-value" text-anchor="end" fill="#666"><tspan x="57" dy="0.355em">60</tspan></text></g></g><text offset="5" transform="rotate(270, 17, 123)" x="17" y="123" class="recharts-text recharts-label" text-anchor="middle" fill="#808080"><tspan x="17" dy="0.355em">Weight (kg)</tspan></text></g><g class="recharts-layer recharts-line"><path stroke="#ff0000" stroke-width="1" fill="none" width="630" height="236" class="recharts-curve recharts-line-curve" d="M65,162.333C84.091,83.667,103.182,5,122.273,5C141.364,5,160.455,162.333,179.545,162.333C198.636,162.333,217.727,5,236.818,5C255.909,5,275,201.667,294.091,201.667C313.182,201.667,332.273,182,351.364,162.333C370.455,142.667,389.545,83.667,408.636,83.667C427.727,83.667,446.818,162.333,465.909,162.333C485,162.333,504.091,44.333,523.182,44.333C542.273,44.333,561.364,162.333,580.455,162.333C599.545,162.333,618.636,70.556,637.727,44.333C656.818,18.111,675.909,11.556,695,5"/><g class="recharts-layer"/><g class="recharts-layer recharts-line-dots"><circle r="3" stroke="#ff0000" stroke-width="1" fill="#fff" width="630" height="236" cx="65" cy="162.33333333333334" class="recharts-dot recharts-line-dot"/><circle r="3" stroke="#ff0000" stroke-width="1" fill="#fff" width="630" height="236" cx="122.27272727272728" cy="5" class="recharts-dot recharts-line-dot"/><circle r="3" stroke="#ff0000" stroke-width="1" fill="#fff" width="630" height="236" cx="179.54545454545456" cy="162.33333333333334" class="recharts-dot recharts-line-dot"/><circle r="3" stroke="#ff0000" stroke-width="1" fill="#fff" width="630" height="236" cx="236.8181818181818" cy="5" class="recharts-dot recharts-line-dot"/><circle r="3" stroke="#ff0000" stroke-width="1" fill="#fff" width="630" height="236" cx="294.0909090909091" cy="201.66666666666669" class="recharts-dot recharts-line-dot"/><circle r="3" stroke="#ff0000" stroke-width="1" fill="#fff" width="630" height="236" cx="351.3636363636364" cy="162.33333333333334" class="recharts-dot recharts-line-dot"/><circle r="3" stroke="#ff0000" stroke-width="1" fill="#fff" width="630" height="236" cx="408.6363636363636" cy="83.66666666666667" class="recharts-dot recharts-line-dot"/><circle r="3" stroke="#ff0000" stroke-width="1" fill="#fff" width="630" height="236" cx="465.90909090909093" cy="162.33333333333334" class="recharts-dot recharts-line-dot"/><circle r="3" stroke="#ff0000" stroke-width="1" fill="#fff" width="630" height="236" cx="523.1818181818182" cy="44.33333333333332" class="recharts-dot recharts-line-dot"/><circle r="3" stroke="#ff0000" stroke-width="1" fill="#fff" width="630" height="236" cx="580.4545454545455" cy="162.33333333333334" class="recharts-dot recharts-line-dot"/><circle r="3" stroke="#ff0000" stroke-width="1" fill="#fff" width="630" height="236" cx="637.7272727272727" cy="44.33333333333332" class="recharts-dot recharts-line-dot"/><circle r="3" stroke="#ff0000" stroke-width="1" fill="#fff" width="630" height="236" cx="695" cy="5" class="recharts-dot recharts-line-dot"/></g></g></svg>